<?xml version="1.0" encoding="utf-8"?>
<!-- Generator: Adobe Illustrator 23.0.3, SVG Export Plug-In . SVG Version: 6.00 Build 0)  -->
<svg version="1.1" id="Icons" xmlns="http://www.w3.org/2000/svg" xmlns:xlink="http://www.w3.org/1999/xlink" x="0px" y="0px"
	 viewBox="0 0 32 32" style="enable-background:new 0 0 32 32;" xml:space="preserve"
	 width="16" height="16">
<style type="text/css">
	.st0{fill:none;stroke:#000000;stroke-width:2;stroke-linecap:round;stroke-linejoin:round;stroke-miterlimit:10;}
</style>
<g>
	<path d="M27,2H5C3.3,2,2,3.3,2,5v2c0,0.6,0.4,1,1,1v12c0,1.7,1.3,3,3,3h7.8l-5.5,6.3c-0.4,0.4-0.3,1,0.1,1.4C8.5,30.9,8.8,31,9,31
		c0.3,0,0.6-0.1,0.8-0.3l5.2-6V29c0,0.6,0.4,1,1,1s1-0.4,1-1v-4.3l5.2,6c0.2,0.2,0.5,0.3,0.8,0.3c0.2,0,0.5-0.1,0.7-0.2
		c0.4-0.4,0.5-1,0.1-1.4L18.2,23H26c1.7,0,3-1.3,3-3V8c0.6,0,1-0.4,1-1V5C30,3.3,28.7,2,27,2z M27,20c0,0.6-0.4,1-1,1H6
		c-0.6,0-1-0.4-1-1V8h22V20z" fill="url(#paint0_linear)"/>
	<path d="M14,9.1V13h3.9C17.5,11,16,9.5,14,9.1z" fill="url(#paint0_linear)"/>
	<path d="M13,19c2.4,0,4.4-1.7,4.9-4H13c-0.6,0-1-0.4-1-1V9.1C9.7,9.6,8,11.6,8,14C8,16.8,10.2,19,13,19z" fill="url(#paint0_linear)"/>
	<path d="M20,13h3c0.6,0,1-0.4,1-1s-0.4-1-1-1h-3c-0.6,0-1,0.4-1,1S19.4,13,20,13z" fill="url(#paint0_linear)"/>
	<path d="M20,17h3c0.6,0,1-0.4,1-1s-0.4-1-1-1h-3c-0.6,0-1,0.4-1,1S19.4,17,20,17z" fill="url(#paint0_linear)"/>
</g>
<defs>
<linearGradient id="paint0_linear" x1="8" y1="2" x2="8" y2="14" gradientUnits="userSpaceOnUse">
<stop stop-color="#6C78F5"/>
<stop offset="1" stop-color="#936CF7"/>
</linearGradient>
</defs>
</svg>
