<?xml version="1.0" encoding="UTF-8" standalone="no"?> <svg id="Capa_1" data-name="Capa 1" xmlns="http://www.w3.org/2000/svg" xmlns:xlink="http://www.w3.org/1999/xlink" viewBox="0 0 187 187" width="16" height="16"><defs><style>.cls-1{fill:url(#linear-gradient);}</style><linearGradient id="linear-gradient" x1="26.48" y1="93.5" x2="159.85" y2="93.5" gradientUnits="userSpaceOnUse"><stop offset="0" stop-color="#00ffa9"/><stop offset="1" stop-color="#0d4dff"/></linearGradient></defs><title>Q</title><path class="cls-1" d="M159.37,43.19c-.12-4.45-3.24-5.78-7.21-5.83C131.42,37.1,112.92,31,97.64,16.47c-2.88-2.75-5.87-2.68-8.73,0C73.62,31,55.1,37.12,34.37,37.35c-5.27,0-7.34,2.79-7.3,7.77.05,7.21,0,14.42,0,21.63h-.6c.44,7.82.74,15.64,1.34,23.44,3.08,39.89,23,67.21,60.81,81.07,2.3.84,4.47,1.87,7.12.9,28.13-10.25,49.48-27.41,58.35-57.24C161.08,91.41,160,67.28,159.37,43.19Zm-41,40.8q-13.59,13.49-27.09,27.07c-1.62,1.61-3.21,3.22-5.69,3.34-3.47-.05-20.73-17.5-20.73-20.91a5,5,0,0,1,2.71-4.56,5.18,5.18,0,0,1,6.32.61,81.86,81.86,0,0,1,7.9,7.79c2.66,3.22,4.45,3.51,7.52.2,6.84-7.4,14.19-14.34,21.3-21.5,2.83-2.83,5.94-5.19,9.49-1.54S121.2,81.17,118.37,84Z"/></svg>